<svg width="116" height="25" viewBox="0 0 116 25" fill="none" xmlns="http://www.w3.org/2000/svg">
<path d="M2.14998 6.60645L0.0274485 12.1716C-0.00376517 12.2535 -0.00766688 12.3354 0.00793994 12.4095C0.0586621 12.6357 0.296666 12.7956 0.546375 12.7098C3.42583 11.7153 12.8094 8.10792 13.0747 3.26424C13.0747 3.26424 13.6171 -1.20505 5.4157 0.312011C5.33767 0.327611 5.30255 0.390009 5.30255 0.448508C5.30255 0.507006 5.34547 0.569405 5.42351 0.577204C6.68766 0.713701 8.69313 0.7761 8.69313 2.14887C8.69313 4.6526 3.34 5.93567 2.36067 6.37246C2.25922 6.41926 2.18119 6.50116 2.14217 6.60255L2.14998 6.60645Z" fill="url(#paint0_linear_335_20919)"/>
<path d="M3.59749 16.3211L1.19404 23.454C1.15502 23.5749 1.17063 23.6958 1.22525 23.7894C1.31889 23.9493 1.51398 24.0468 1.71687 23.9766C4.70557 22.9899 15.2831 19.0783 16.6331 12.8502C16.8828 11.7036 16.6994 10.4946 16.0478 9.51967C15.3806 8.52129 14.1048 7.52292 11.674 7.50342C11.6272 7.50342 11.5804 7.51902 11.5453 7.55022L9.96117 8.88398C9.90654 8.93078 9.88313 8.99708 9.89484 9.06338C9.90654 9.12968 9.94556 9.18428 10.0119 9.21547C11.1044 9.68346 14.2374 11.6451 3.83159 16.0754C3.77697 16.0988 3.73014 16.1339 3.69113 16.1729C3.65211 16.2119 3.6209 16.2665 3.60139 16.325L3.59749 16.3211Z" fill="url(#paint1_linear_335_20919)"/>
<path d="M113.892 9.70238L114.097 8.33594H115.702V16.7225C115.702 17.9522 115.338 18.9031 114.609 19.5749C113.88 20.2581 112.753 20.5997 111.227 20.5997C110.043 20.5997 109.081 20.3321 108.341 19.7969C107.6 19.2731 107.19 18.5273 107.111 17.5594H108.99C109.103 18.049 109.365 18.4248 109.775 18.6867C110.185 18.96 110.715 19.0966 111.364 19.0966C113.038 19.0966 113.875 18.2825 113.875 16.6541V15.6805C113.237 16.637 112.286 17.1153 111.022 17.1153C109.804 17.1153 108.807 16.7168 108.033 15.9197C107.27 15.1226 106.889 14.0408 106.889 12.6744C106.889 11.3535 107.276 10.2831 108.05 9.46325C108.824 8.64339 109.815 8.23346 111.022 8.23346C112.297 8.23346 113.254 8.7231 113.892 9.70238ZM109.485 14.7582C109.952 15.2934 110.567 15.561 111.33 15.561C112.093 15.561 112.707 15.2991 113.174 14.7753C113.641 14.2401 113.875 13.5512 113.875 12.7085C113.875 11.8431 113.641 11.1428 113.174 10.6076C112.707 10.0611 112.093 9.78778 111.33 9.78778C110.567 9.78778 109.952 10.0554 109.485 10.5906C109.018 11.1258 108.785 11.8204 108.785 12.6744C108.785 13.5284 109.018 14.223 109.485 14.7582Z" fill="white"/>
<path d="M102.192 8.23328C103.239 8.23328 104.088 8.55211 104.737 9.18978C105.386 9.82745 105.71 10.8352 105.71 12.213V17.081H103.849V12.3668C103.849 10.6701 103.154 9.82176 101.765 9.82176C101.036 9.82176 100.461 10.078 100.04 10.5904C99.6297 11.0914 99.4248 11.786 99.4248 12.6742V17.081H97.5801V8.33576H99.1856L99.3906 9.48015C100.051 8.6489 100.985 8.23328 102.192 8.23328Z" fill="white"/>
<path d="M95.8363 6.79863C95.62 7.0036 95.3524 7.10608 95.0336 7.10608C94.7147 7.10608 94.4471 7.0036 94.2308 6.79863C94.0144 6.58228 93.9062 6.31469 93.9062 5.99585C93.9062 5.67701 94.0144 5.41511 94.2308 5.21015C94.4471 4.9938 94.7147 4.88562 95.0336 4.88562C95.3524 4.88562 95.62 4.9938 95.8363 5.21015C96.0527 5.41511 96.1609 5.67701 96.1609 5.99585C96.1609 6.31469 96.0527 6.58228 95.8363 6.79863ZM94.0941 17.0811V8.33587H95.9388V17.0811H94.0941Z" fill="white"/>
<path d="M89.0538 8.2334C90.1128 8.2334 90.9668 8.55224 91.6159 9.18991C92.2649 9.82758 92.5894 10.8353 92.5894 12.2132V17.0811H90.7448V12.3669C90.7448 11.5356 90.5626 10.9036 90.1982 10.4709C89.8452 10.0382 89.3271 9.82189 88.6439 9.82189C87.9151 9.82189 87.3401 10.0781 86.9188 10.5905C86.5088 11.0915 86.3039 11.7804 86.3039 12.6572V17.0811H84.4592V5.12476H86.3039V9.59984C86.9643 8.68888 87.8809 8.2334 89.0538 8.2334Z" fill="white"/>
<path d="M79.3573 14.707V9.95865V8.336V5.89349H81.2191V8.336H83.3541V9.95865H81.2191V14.5191C81.2191 14.8607 81.2874 15.1056 81.424 15.2536C81.5607 15.3902 81.8055 15.4586 82.1585 15.4586H83.4566V17.0812H81.7486C80.9173 17.0812 80.3081 16.8876 79.921 16.5005C79.5452 16.1133 79.3573 15.5155 79.3573 14.707Z" fill="white"/>
<path d="M72.4303 17.1324L69.0312 8.33594H70.9955L73.438 14.9802L75.8122 8.33594H77.7764L73.8138 18.4476C73.5177 19.2219 73.2273 19.7571 72.9427 20.0531C72.658 20.3492 72.2139 20.4972 71.6104 20.4972H69.6291V18.8746H70.9272C71.2802 18.8746 71.525 18.8177 71.6616 18.7038C71.8097 18.5899 71.952 18.3508 72.0886 17.9864L72.4303 17.1324Z" fill="white"/>
<path d="M65.2445 8.23346C66.2921 8.23346 67.1405 8.55229 67.7895 9.18997C68.4386 9.82764 68.7631 10.8354 68.7631 12.2132V17.0811H66.9013V12.3669C66.9013 10.6703 66.2067 9.82194 64.8175 9.82194C64.0888 9.82194 63.5137 10.0782 63.0924 10.5906C62.6825 11.0916 62.4775 11.7862 62.4775 12.6744V17.0811H60.6328V8.33594H62.2384L62.4433 9.48033C63.1038 8.64908 64.0375 8.23346 65.2445 8.23346Z" fill="white"/>
<path d="M50.5267 17.0811H48.4941L52.9692 5.12482H55.3092L59.7672 17.0811H57.6663L56.539 14.1262H51.6369L50.5267 17.0811ZM54.0794 7.24279L52.1835 12.4523H55.9924L54.0794 7.24279Z" fill="white"/>
<path d="M44.1588 14.707V9.95865H42.6387V8.336H44.1588V5.89349H46.0206V8.336H48.1556V9.95865H46.0206V14.5191C46.0206 14.8607 46.0889 15.1056 46.2256 15.2536C46.3622 15.3902 46.607 15.4586 46.96 15.4586H48.2581V17.0812H46.5501C45.7188 17.0812 45.1096 16.8876 44.7225 16.5005C44.3467 16.1133 44.1588 15.5155 44.1588 14.707Z" fill="white"/>
<path d="M38.1743 17.1835C36.8079 17.1835 35.7204 16.7793 34.9119 15.9708C34.1035 15.1509 33.6992 14.0692 33.6992 12.7255C33.6992 11.3818 34.0921 10.3001 34.8778 9.48021C35.6749 8.64896 36.7168 8.23334 38.0035 8.23334C39.2674 8.23334 40.2866 8.60911 41.0609 9.36065C41.8466 10.1122 42.2508 11.1256 42.2736 12.401C42.2736 12.6287 42.2565 12.8621 42.2223 13.1013H35.6293V13.2208C35.6521 13.9724 35.8855 14.5702 36.3296 15.0143C36.7737 15.4584 37.3544 15.6804 38.0718 15.6804C38.6412 15.6804 39.1194 15.5495 39.5066 15.2876C39.8937 15.0143 40.1499 14.6328 40.2752 14.1432H42.1199C41.9604 15.0314 41.5277 15.7601 40.8218 16.3295C40.1158 16.8988 39.2333 17.1835 38.1743 17.1835ZM35.6976 11.7519H40.3606C40.2809 11.1142 40.0304 10.6189 39.609 10.2659C39.1991 9.90153 38.6696 9.71934 38.0206 9.71934C37.4171 9.71934 36.8933 9.90722 36.4492 10.283C36.0165 10.6474 35.7659 11.137 35.6976 11.7519Z" fill="white"/>
<path d="M23.6758 17.081V5.12469H28.0654C29.3749 5.12469 30.3884 5.40368 31.1058 5.96164C31.8345 6.5196 32.1989 7.29391 32.1989 8.28458C32.1989 9.65102 31.5157 10.5221 30.1493 10.8979C30.9122 11.0118 31.5214 11.3021 31.9769 11.769C32.4323 12.2245 32.6601 12.8565 32.6601 13.6649C32.6601 14.7353 32.2729 15.5722 31.4986 16.1758C30.7357 16.7793 29.6425 17.081 28.2192 17.081H23.6758ZM28.1167 6.76442H25.64V10.1976H28.1167C28.7885 10.1976 29.3066 10.0439 29.671 9.73642C30.0468 9.42897 30.2347 9.00766 30.2347 8.47247C30.2347 7.93728 30.0468 7.52165 29.671 7.22559C29.3066 6.91814 28.7885 6.76442 28.1167 6.76442ZM28.2363 11.8202H25.64V15.4242H28.2363C29.0106 15.4242 29.6027 15.2705 30.0126 14.963C30.4339 14.6442 30.6446 14.2058 30.6446 13.6478C30.6446 13.0671 30.4339 12.6173 30.0126 12.2985C29.5913 11.9797 28.9992 11.8202 28.2363 11.8202Z" fill="white"/>
<defs>
<linearGradient id="paint0_linear_335_20919" x1="2.32555" y1="3.10824" x2="23.0421" y2="23.3661" gradientUnits="userSpaceOnUse">
<stop stop-color="#BB812E"/>
<stop offset="0.13" stop-color="#C28933"/>
<stop offset="0.52" stop-color="#D9BA60"/>
<stop offset="0.83" stop-color="#D2AF54"/>
<stop offset="1" stop-color="#9F7C27"/>
</linearGradient>
<linearGradient id="paint1_linear_335_20919" x1="-1.34207" y1="6.85603" x2="19.3783" y2="27.1139" gradientUnits="userSpaceOnUse">
<stop stop-color="#BB812E"/>
<stop offset="0.13" stop-color="#C28933"/>
<stop offset="0.52" stop-color="#D9BA60"/>
<stop offset="0.83" stop-color="#D2AF54"/>
<stop offset="1" stop-color="#9F7C27"/>
</linearGradient>
</defs>
</svg>
