<svg width="69" height="20" viewBox="0 0 69 20" fill="none" xmlns="http://www.w3.org/2000/svg">
<path d="M4.38707 0H32.8811V20H4.38707C1.97418 20 0 18.0881 0 15.7035V4.29646C0 1.9334 1.97418 0 4.38707 0Z" fill="url(#paint0_linear_3843_241779)"/>
<path d="M10.7142 7.6246C10.7142 6.35714 9.88067 5.71268 8.67423 5.71268C7.46779 5.71268 6.56844 6.55048 6.56844 7.94683V8.14017H3.87039V7.77497C3.87039 5.36896 5.71296 3.5 8.69616 3.5C11.6794 3.5 13.4123 5.13265 13.4123 7.51719C13.4123 9.40763 12.3594 10.5462 10.7362 11.8566L7.81875 14.1982H13.5V16.4109H3.9362V14.3915L8.89358 10.3743C10.0342 9.45059 10.7362 8.69871 10.7362 7.64608L10.7142 7.6246Z" fill="url(#paint1_linear_3843_241779)"/>
<path d="M18.8742 3.5C22.0329 3.5 24.2483 5.88453 24.2483 9.70838V10.2884C24.2483 14.1767 22.0329 16.4968 18.8742 16.4968C15.7155 16.4968 13.5 14.1767 13.5 10.2884V9.70838C13.5 5.88453 15.7155 3.5 18.8742 3.5ZM18.8742 5.73416C17.2948 5.73416 16.198 7.17347 16.198 9.81579V10.224C16.198 12.8663 17.2948 14.3056 18.8742 14.3056C20.4535 14.3056 21.5722 12.8878 21.5722 10.224V9.81579C21.5722 7.19495 20.4754 5.73416 18.8742 5.73416Z" fill="url(#paint2_linear_3843_241779)"/>
<path d="M29.0328 7.08916V9.38776H31.2483V11.1063H29.0328V13.4264H27.1683V11.1063H24.9529V9.38776H27.1683V7.08916H29.0328Z" fill="url(#paint3_linear_3843_241779)"/>
<path d="M32.5322 0.537057V19.4629H4.58659C2.4808 19.4629 0.747905 17.7658 0.747905 15.7035V4.29646C0.747905 2.23416 2.4808 0.537057 4.58659 0.537057H32.5322ZM33.0806 0H4.58659C2.1737 0 0.199521 1.9334 0.199521 4.29646V15.7035C0.199521 18.0881 2.1737 20 4.58659 20H33.0806V0Z" fill="url(#paint4_linear_3843_241779)"/>
<path d="M32.3515 0H63.719C66.1319 0 68.1061 1.9334 68.1061 4.29646V15.7035C68.1061 18.0666 66.1319 20 63.719 20H32.3515V0Z" fill="url(#paint5_linear_3843_241779)"/>
<path d="M37.265 3.54458L38.5592 5.84319L39.9191 3.54458H41.2791L39.1733 7.08916V9.17294H37.945V7.08916L35.8392 3.54458H37.265Z" fill="black"/>
<path d="M45.6223 3.54458V4.57573H42.9901V5.84319H45.1178V6.83137H42.9901V8.14179H45.7101V9.17294H41.7617V3.54458H45.6223Z" fill="black"/>
<path d="M48.101 3.54458H49.5707L51.6545 9.17294H50.3384L49.8997 7.94845H47.7062L47.2675 9.17294H45.9952L48.101 3.54458ZM49.5488 6.96027L48.781 4.81204L48.0352 6.96027H49.5488Z" fill="black"/>
<path d="M56.6339 5.41354C56.6339 6.14394 56.239 6.72396 55.6468 7.00323L56.7874 9.17294H55.4274L54.4623 7.2825H53.4313V9.17294H52.2029V3.54458H54.55C55.8223 3.54458 56.6558 4.27498 56.6558 5.41354H56.6339ZM53.4094 6.27283H54.4184C55.0107 6.27283 55.3616 5.92912 55.3616 5.41354C55.3616 4.89797 54.9887 4.55425 54.4184 4.55425H53.4094V6.27283Z" fill="black"/>
<path d="M57.1164 7.32546H58.3229C58.3668 7.884 58.8055 8.27068 59.5074 8.27068C60.0777 8.27068 60.4945 8.03438 60.4945 7.58325C60.4945 7.11064 60.0338 7.00323 59.0687 6.83137C58.1035 6.63803 57.2481 6.35876 57.2481 5.19872C57.2481 4.21053 58.1035 3.50162 59.3977 3.50162C60.6919 3.50162 61.6132 4.18905 61.6351 5.26317H60.4287C60.3629 4.79056 60.0119 4.46832 59.3977 4.46832C58.8713 4.46832 58.4984 4.68314 58.4984 5.11279C58.4984 5.56392 58.959 5.67133 59.9022 5.84319C60.8893 6.01504 61.7448 6.3158 61.7448 7.43288C61.7448 8.48551 60.8455 9.2159 59.5074 9.2159C58.0377 9.2159 57.1384 8.46402 57.1164 7.32546Z" fill="black"/>
<path d="M38.9321 16.4769C37.243 16.4769 36.0805 15.2524 36.0805 13.6198C36.0805 11.9871 37.243 10.7626 38.9321 10.7626C40.6211 10.7626 41.7836 11.9871 41.7836 13.6198C41.7836 15.2524 40.6211 16.4769 38.9321 16.4769ZM38.9321 15.4458C39.8972 15.4458 40.5114 14.6724 40.5114 13.5983C40.5114 12.5242 39.8972 11.7508 38.9321 11.7508C37.9669 11.7508 37.3308 12.5242 37.3308 13.5983C37.3308 14.6724 37.945 15.4458 38.9321 15.4458Z" fill="black"/>
<path d="M42.5295 10.8056H43.6481L46.083 14.3502V10.8056H47.2894V16.434H46.1707L43.7359 12.8894V16.434H42.5295V10.8056Z" fill="black"/>
<path d="M48.2765 10.8056H49.5049V15.4028H51.7862V16.434H48.2765V10.8056Z" fill="black"/>
<path d="M53.6726 10.8056V16.434H52.4442V10.8056H53.6726Z" fill="black"/>
<path d="M54.6378 10.8056H55.7565L58.1913 14.3502V10.8056H59.3977V16.434H58.279L55.8442 12.8894V16.434H54.6378V10.8056Z" fill="black"/>
<path d="M64.2454 10.8056V11.8367H61.6132V13.1042H63.7409V14.0924H61.6132V15.4028H64.3332V16.434H60.3848V10.8056H64.2454Z" fill="black"/>
<defs>
<linearGradient id="paint0_linear_3843_241779" x1="34.0757" y1="20.5585" x2="34.0757" y2="-0.794844" gradientUnits="userSpaceOnUse">
<stop/>
<stop offset="1" stop-color="#595959"/>
</linearGradient>
<linearGradient id="paint1_linear_3843_241779" x1="34.1306" y1="22.629" x2="34.1306" y2="-7.15474" gradientUnits="userSpaceOnUse">
<stop stop-color="#D3992E"/>
<stop offset="0.13" stop-color="#DAA133"/>
<stop offset="0.52" stop-color="#F1D260"/>
<stop offset="0.83" stop-color="#EAC754"/>
<stop offset="1" stop-color="#B77C27"/>
</linearGradient>
<linearGradient id="paint2_linear_3843_241779" x1="34.053" y1="22.4793" x2="34.053" y2="-7.10744" gradientUnits="userSpaceOnUse">
<stop stop-color="#D3992E"/>
<stop offset="0.13" stop-color="#DAA133"/>
<stop offset="0.52" stop-color="#F1D260"/>
<stop offset="0.83" stop-color="#EAC754"/>
<stop offset="1" stop-color="#B77C27"/>
</linearGradient>
<linearGradient id="paint3_linear_3843_241779" x1="33.9344" y1="-23.4576" x2="33.9344" y2="-23.4576" gradientUnits="userSpaceOnUse">
<stop stop-color="#D3992E"/>
<stop offset="0.13" stop-color="#DAA133"/>
<stop offset="0.52" stop-color="#F1D260"/>
<stop offset="0.83" stop-color="#EAC754"/>
<stop offset="1" stop-color="#B77C27"/>
</linearGradient>
<linearGradient id="paint4_linear_3843_241779" x1="0" y1="10.0107" x2="68.1061" y2="10.0107" gradientUnits="userSpaceOnUse">
<stop stop-color="#D3992E"/>
<stop offset="0.13" stop-color="#DAA133"/>
<stop offset="0.52" stop-color="#F1D260"/>
<stop offset="0.83" stop-color="#EAC754"/>
<stop offset="1" stop-color="#B77C27"/>
</linearGradient>
<linearGradient id="paint5_linear_3843_241779" x1="-4.30363" y1="5.02685" x2="68.4514" y2="44.4324" gradientUnits="userSpaceOnUse">
<stop stop-color="#D3992E"/>
<stop offset="0.13" stop-color="#DAA133"/>
<stop offset="0.52" stop-color="#F1D260"/>
<stop offset="0.83" stop-color="#EAC754"/>
<stop offset="1" stop-color="#B77C27"/>
</linearGradient>
</defs>
</svg>
