<svg width="24" height="24" viewBox="0 0 24 24" fill="none" xmlns="http://www.w3.org/2000/svg">
<path d="M17.1928 16.2131C17.2497 16.3501 17.2646 16.5009 17.2357 16.6465C17.2069 16.792 17.1355 16.9257 17.0306 17.0306L12.5306 21.5306C12.461 21.6003 12.3782 21.6557 12.2872 21.6934C12.1962 21.7311 12.0986 21.7506 12 21.7506C11.9014 21.7506 11.8038 21.7311 11.7128 21.6934C11.6217 21.6557 11.539 21.6003 11.4694 21.5306L6.96937 17.0306C6.86436 16.9257 6.79284 16.792 6.76385 16.6465C6.73486 16.5009 6.74971 16.35 6.80653 16.2129C6.86334 16.0758 6.95956 15.9586 7.08301 15.8762C7.20645 15.7938 7.35157 15.7499 7.5 15.75H16.5C16.6483 15.75 16.7933 15.794 16.9166 15.8765C17.04 15.9589 17.1361 16.076 17.1928 16.2131ZM7.5 8.24998H16.5C16.6484 8.2501 16.7935 8.20617 16.917 8.12377C17.0404 8.04137 17.1366 7.92419 17.1935 7.78707C17.2503 7.64996 17.2651 7.49906 17.2361 7.3535C17.2072 7.20794 17.1356 7.07425 17.0306 6.96935L12.5306 2.46935C12.461 2.39962 12.3782 2.3443 12.2872 2.30656C12.1962 2.26882 12.0986 2.24939 12 2.24939C11.9014 2.24939 11.8038 2.26882 11.7128 2.30656C11.6217 2.3443 11.539 2.39962 11.4694 2.46935L6.96937 6.96935C6.86436 7.07425 6.79284 7.20794 6.76385 7.3535C6.73486 7.49906 6.74971 7.64996 6.80653 7.78707C6.86334 7.92419 6.95956 8.04137 7.08301 8.12377C7.20645 8.20617 7.35157 8.2501 7.5 8.24998Z" fill="white" fill-opacity="0.5"/>
</svg>
