<svg width="24" height="24" viewBox="0 0 24 24" fill="none" xmlns="http://www.w3.org/2000/svg">
<path d="M22.4775 14.8181L20.37 6.38625C20.2888 6.06159 20.1015 5.77338 19.8376 5.56749C19.5738 5.3616 19.2487 5.24984 18.9141 5.25H12.75V3.75C12.75 3.35218 12.592 2.97064 12.3107 2.68934C12.0294 2.40804 11.6478 2.25 11.25 2.25H7.5C7.10218 2.25 6.72064 2.40804 6.43934 2.68934C6.15804 2.97064 6 3.35218 6 3.75V5.25H5.08594C4.75128 5.24984 4.42619 5.3616 4.16237 5.56749C3.89855 5.77338 3.71115 6.06159 3.63 6.38625L1.5225 14.8181C1.50753 14.8776 1.49997 14.9387 1.5 15V18C1.5 18.3978 1.65804 18.7794 1.93934 19.0607C2.22064 19.342 2.60218 19.5 3 19.5H21C21.3978 19.5 21.7794 19.342 22.0607 19.0607C22.342 18.7794 22.5 18.3978 22.5 18V15C22.5 14.9387 22.4925 14.8776 22.4775 14.8181ZM15.75 8.25H17.25C17.4489 8.25 17.6397 8.32902 17.7803 8.46967C17.921 8.61032 18 8.80109 18 9C18 9.19891 17.921 9.38968 17.7803 9.53033C17.6397 9.67098 17.4489 9.75 17.25 9.75H15.75C15.5511 9.75 15.3603 9.67098 15.2197 9.53033C15.079 9.38968 15 9.19891 15 9C15 8.80109 15.079 8.61032 15.2197 8.46967C15.3603 8.32902 15.5511 8.25 15.75 8.25ZM15.75 11.25H17.25C17.4489 11.25 17.6397 11.329 17.7803 11.4697C17.921 11.6103 18 11.8011 18 12C18 12.1989 17.921 12.3897 17.7803 12.5303C17.6397 12.671 17.4489 12.75 17.25 12.75H15.75C15.5511 12.75 15.3603 12.671 15.2197 12.5303C15.079 12.3897 15 12.1989 15 12C15 11.8011 15.079 11.6103 15.2197 11.4697C15.3603 11.329 15.5511 11.25 15.75 11.25ZM12.75 8.25C12.9489 8.25 13.1397 8.32902 13.2803 8.46967C13.421 8.61032 13.5 8.80109 13.5 9C13.5 9.19891 13.421 9.38968 13.2803 9.53033C13.1397 9.67098 12.9489 9.75 12.75 9.75H11.25C11.0511 9.75 10.8603 9.67098 10.7197 9.53033C10.579 9.38968 10.5 9.19891 10.5 9C10.5 8.80109 10.579 8.61032 10.7197 8.46967C10.8603 8.32902 11.0511 8.25 11.25 8.25H12.75ZM13.5 12C13.5 12.1989 13.421 12.3897 13.2803 12.5303C13.1397 12.671 12.9489 12.75 12.75 12.75H11.25C11.0511 12.75 10.8603 12.671 10.7197 12.5303C10.579 12.3897 10.5 12.1989 10.5 12C10.5 11.8011 10.579 11.6103 10.7197 11.4697C10.8603 11.329 11.0511 11.25 11.25 11.25H12.75C12.9489 11.25 13.1397 11.329 13.2803 11.4697C13.421 11.6103 13.5 11.8011 13.5 12ZM7.5 3.75H11.25V5.25H7.5V3.75ZM6.75 8.25H8.25C8.44891 8.25 8.63968 8.32902 8.78033 8.46967C8.92098 8.61032 9 8.80109 9 9C9 9.19891 8.92098 9.38968 8.78033 9.53033C8.63968 9.67098 8.44891 9.75 8.25 9.75H6.75C6.55109 9.75 6.36032 9.67098 6.21967 9.53033C6.07902 9.38968 6 9.19891 6 9C6 8.80109 6.07902 8.61032 6.21967 8.46967C6.36032 8.32902 6.55109 8.25 6.75 8.25ZM6.75 11.25H8.25C8.44891 11.25 8.63968 11.329 8.78033 11.4697C8.92098 11.6103 9 11.8011 9 12C9 12.1989 8.92098 12.3897 8.78033 12.5303C8.63968 12.671 8.44891 12.75 8.25 12.75H6.75C6.55109 12.75 6.36032 12.671 6.21967 12.5303C6.07902 12.3897 6 12.1989 6 12C6 11.8011 6.07902 11.6103 6.21967 11.4697C6.36032 11.329 6.55109 11.25 6.75 11.25ZM21 18H3V15.75H21V18Z" fill="white" fill-opacity="0.5"/>
</svg>
