<svg width="64" height="64" viewBox="0 0 64 64" fill="none" xmlns="http://www.w3.org/2000/svg">
<g filter="url(#filter0_b_3082_148802)">
<path d="M64 32C64 34.9829 61.8543 37.22 59.96 39.1943C58.8829 40.32 57.7686 41.48 57.3486 42.5C56.96 43.4343 56.9371 44.9829 56.9143 46.4829C56.8714 49.2714 56.8257 52.4314 54.6286 54.6286C52.4314 56.8257 49.2714 56.8714 46.4829 56.9143C44.9829 56.9371 43.4343 56.96 42.5 57.3486C41.48 57.7686 40.32 58.8829 39.1943 59.96C37.22 61.8543 34.9829 64 32 64C29.0171 64 26.78 61.8543 24.8057 59.96C23.68 58.8829 22.52 57.7686 21.5 57.3486C20.5657 56.96 19.0171 56.9371 17.5171 56.9143C14.7286 56.8714 11.5686 56.8257 9.37143 54.6286C7.17429 52.4314 7.12857 49.2714 7.08571 46.4829C7.06286 44.9829 7.04 43.4343 6.65143 42.5C6.23143 41.48 5.11714 40.32 4.04 39.1943C2.14571 37.22 0 34.9829 0 32C0 29.0171 2.14571 26.78 4.04 24.8057C5.11714 23.68 6.23143 22.52 6.65143 21.5C7.04 20.5657 7.06286 19.0171 7.08571 17.5171C7.12857 14.7286 7.17429 11.5686 9.37143 9.37143C11.5686 7.17429 14.7286 7.12857 17.5171 7.08571C19.0171 7.06286 20.5657 7.04 21.5 6.65143C22.52 6.23143 23.68 5.11714 24.8057 4.04C26.78 2.14571 29.0171 0 32 0C34.9829 0 37.22 2.14571 39.1943 4.04C40.32 5.11714 41.48 6.23143 42.5 6.65143C43.4343 7.04 44.9829 7.06286 46.4829 7.08571C49.2714 7.12857 52.4314 7.17429 54.6286 9.37143C56.8257 11.5686 56.8714 14.7286 56.9143 17.5171C56.9371 19.0171 56.96 20.5657 57.3486 21.5C57.7686 22.52 58.8829 23.68 59.96 24.8057C61.8543 26.78 64 29.0171 64 32Z" fill="url(#paint0_linear_3082_148802)"/>
<path d="M59.5987 38.8486L59.5992 38.8481C61.5263 36.8397 63.5 34.7473 63.5 32C63.5 29.2527 61.5263 27.1603 59.5992 25.1519L59.5987 25.1514L59.5681 25.1193C59.0418 24.5694 58.4935 23.9964 58.0239 23.4335C57.5489 22.8642 57.1262 22.2726 56.8866 21.6913C56.6616 21.15 56.5542 20.4659 56.496 19.7619C56.4377 19.0564 56.4259 18.2836 56.4146 17.5432L56.4143 17.5248C56.3708 14.6911 56.305 11.755 54.275 9.72498C52.2451 7.69502 49.309 7.62921 46.4752 7.58566C46.4752 7.58566 46.4752 7.58566 46.4752 7.58566L46.4569 7.58538C45.7165 7.5741 44.9436 7.56232 44.2381 7.50402C43.5342 7.44584 42.8501 7.33838 42.3088 7.11343C42.3085 7.11332 42.3083 7.11321 42.308 7.11309L42.5 6.65143C41.4878 6.23465 40.3378 5.1342 39.2202 4.06479L59.5987 38.8486ZM59.5987 38.8486L59.5681 38.8806C59.0419 39.4306 58.4935 40.0036 58.0239 40.5665C57.5489 41.1359 57.1261 41.7275 56.8866 42.3088M59.5987 38.8486L56.8866 42.3088M7.11343 21.6912C6.8739 22.2725 6.45112 22.8641 5.97607 23.4335C5.50648 23.9964 4.95819 24.5694 4.43198 25.1193L4.40126 25.1514L4.40079 25.1519C2.47371 27.1603 0.5 29.2527 0.5 32C0.5 34.7473 2.47371 36.8397 4.40079 38.8481L4.40126 38.8486L4.43191 38.8806C4.95814 39.4306 5.50645 40.0036 5.97607 40.5665C6.45121 41.136 6.87405 41.7277 7.11356 42.3091C7.33842 42.8504 7.44585 43.5343 7.50402 44.2381C7.56232 44.9436 7.5741 45.7165 7.58538 46.4569L7.58566 46.4752C7.58566 46.4752 7.58566 46.4752 7.58566 46.4752C7.62921 49.309 7.69502 52.2451 9.72498 54.275C11.755 56.305 14.6911 56.3708 17.5248 56.4143L17.5432 56.4146C18.2836 56.4259 19.0564 56.4377 19.7619 56.496C20.4658 56.5542 21.1499 56.6616 21.6912 56.8866C22.2725 57.1261 22.8641 57.5489 23.4335 58.0239C23.9964 58.4935 24.5694 59.0418 25.1193 59.5681L25.1514 59.5987L25.1519 59.5992C27.1603 61.5263 29.2527 63.5 32 63.5C34.7473 63.5 36.8397 61.5263 38.8481 59.5992L38.8486 59.5987L38.8806 59.5681C39.4306 59.0419 40.0036 58.4935 40.5665 58.0239C41.136 57.5488 41.7277 57.1259 42.3091 56.8864C42.3093 56.8864 42.3095 56.8863 42.3096 56.8862L42.5 57.3486C43.4324 56.9608 44.9768 56.9372 46.474 56.9144L7.11343 21.6912ZM7.11343 21.6912C7.33838 21.1499 7.44584 20.4658 7.50402 19.7619C7.56232 19.0564 7.5741 18.2835 7.58538 17.5431L7.58566 17.5248C7.58566 17.5248 7.58566 17.5248 7.58566 17.5248C7.62921 14.691 7.69502 11.7549 9.72498 9.72498C11.7549 7.69502 14.691 7.62921 17.5248 7.58566C17.5248 7.58566 17.5248 7.58566 17.5248 7.58566L17.5431 7.58538C18.2835 7.5741 19.0564 7.56232 19.7619 7.50402C20.4659 7.44584 21.15 7.33836 21.6913 7.11338L7.11343 21.6912ZM56.8866 42.3088C56.8867 42.3085 56.8868 42.3083 56.8869 42.308L57.3486 42.5L56.8862 42.3096C56.8863 42.3094 56.8865 42.3091 56.8866 42.3088Z" stroke="white" stroke-opacity="0.2"/>
</g>
<path d="M45 33.0001C44.9996 34.2213 44.6797 35.4212 44.0721 36.4806C43.4644 37.5399 42.5902 38.4218 41.5363 39.0388C40.4823 39.6558 39.2853 39.9862 38.0641 39.9974C36.8429 40.0086 35.6401 39.7001 34.575 39.1026L35.9575 43.7126C36.0023 43.8619 36.0116 44.0196 35.9846 44.1731C35.9577 44.3267 35.8952 44.4717 35.8021 44.5968C35.7091 44.7219 35.5881 44.8235 35.4489 44.8935C35.3096 44.9636 35.1559 45 35 45.0001H29C28.8441 45 28.6904 44.9636 28.5511 44.8935C28.4119 44.8235 28.2909 44.7219 28.1979 44.5968C28.1048 44.4717 28.0423 44.3267 28.0154 44.1731C27.9884 44.0196 27.9977 43.8619 28.0425 43.7126L29.425 39.1026C28.3599 39.7001 27.1571 40.0086 25.9359 39.9974C24.7147 39.9862 23.5177 39.6558 22.4637 39.0388C21.4098 38.4218 20.5356 37.5399 19.9279 36.4806C19.3203 35.4212 19.0004 34.2213 19 33.0001C19 29.0001 21.2063 25.1451 25.375 21.8413C27.2889 20.332 29.3839 19.0676 31.6112 18.0776C31.7331 18.0262 31.864 17.9998 31.9963 17.9998C32.1285 17.9998 32.2594 18.0262 32.3813 18.0776C34.6112 19.067 36.7088 20.3314 38.625 21.8413C42.7938 25.1451 45 29.0001 45 33.0001Z" fill="url(#paint1_linear_3082_148802)"/>
<defs>
<filter id="filter0_b_3082_148802" x="-20" y="-20" width="104" height="104" filterUnits="userSpaceOnUse" color-interpolation-filters="sRGB">
<feFlood flood-opacity="0" result="BackgroundImageFix"/>
<feGaussianBlur in="BackgroundImageFix" stdDeviation="10"/>
<feComposite in2="SourceAlpha" operator="in" result="effect1_backgroundBlur_3082_148802"/>
<feBlend mode="normal" in="SourceGraphic" in2="effect1_backgroundBlur_3082_148802" result="shape"/>
</filter>
<linearGradient id="paint0_linear_3082_148802" x1="32" y1="0" x2="32" y2="64" gradientUnits="userSpaceOnUse">
<stop stop-color="#FFE684"/>
<stop offset="1" stop-color="#F78D11"/>
</linearGradient>
<linearGradient id="paint1_linear_3082_148802" x1="32" y1="20.9951" x2="32" y2="45.0001" gradientUnits="userSpaceOnUse">
<stop stop-color="#812A9E"/>
<stop offset="1" stop-color="#1D0728"/>
</linearGradient>
</defs>
</svg>
