<svg width="23" height="26" viewBox="0 0 23 26" fill="none" xmlns="http://www.w3.org/2000/svg">
<path d="M22.9384 25.3616C22.9384 25.3616 19.1592 23.9256 16.1016 22.7752H3.24321C1.72081 22.7752 0.487213 21.5112 0.487213 19.9528V3.40876C0.487213 1.85116 1.72081 0.587158 3.24321 0.587158H20.1808C21.7032 0.587158 22.9376 1.85116 22.9376 3.40876V17.6576L22.9384 17.6568V25.3616ZM19.62 16.0848C19.356 15.7696 18.8912 15.7336 18.584 16.0032C18.56 16.024 16.1664 18.08 11.7112 18.08C7.31281 18.08 4.88241 16.0384 4.83841 16.0016C4.53041 15.7328 4.06801 15.7704 3.80401 16.0848C3.53921 16.4008 3.57601 16.8752 3.88401 17.1464C3.99841 17.2456 6.72081 19.5848 11.7112 19.5848C16.704 19.5848 19.4272 17.2456 19.54 17.1464C19.848 16.8752 19.8848 16.4008 19.62 16.0848Z" fill="#421056"/>
</svg>
