<svg width="64" height="64" viewBox="0 0 64 64" fill="none" xmlns="http://www.w3.org/2000/svg">
<g filter="url(#filter0_b_3082_149931)">
<path d="M64 32C64 34.9829 61.8543 37.22 59.96 39.1943C58.8829 40.32 57.7686 41.48 57.3486 42.5C56.96 43.4343 56.9371 44.9829 56.9143 46.4829C56.8714 49.2714 56.8257 52.4314 54.6286 54.6286C52.4314 56.8257 49.2714 56.8714 46.4829 56.9143C44.9829 56.9371 43.4343 56.96 42.5 57.3486C41.48 57.7686 40.32 58.8829 39.1943 59.96C37.22 61.8543 34.9829 64 32 64C29.0171 64 26.78 61.8543 24.8057 59.96C23.68 58.8829 22.52 57.7686 21.5 57.3486C20.5657 56.96 19.0171 56.9371 17.5171 56.9143C14.7286 56.8714 11.5686 56.8257 9.37143 54.6286C7.17429 52.4314 7.12857 49.2714 7.08571 46.4829C7.06286 44.9829 7.04 43.4343 6.65143 42.5C6.23143 41.48 5.11714 40.32 4.04 39.1943C2.14571 37.22 0 34.9829 0 32C0 29.0171 2.14571 26.78 4.04 24.8057C5.11714 23.68 6.23143 22.52 6.65143 21.5C7.04 20.5657 7.06286 19.0171 7.08571 17.5171C7.12857 14.7286 7.17429 11.5686 9.37143 9.37143C11.5686 7.17429 14.7286 7.12857 17.5171 7.08571C19.0171 7.06286 20.5657 7.04 21.5 6.65143C22.52 6.23143 23.68 5.11714 24.8057 4.04C26.78 2.14571 29.0171 0 32 0C34.9829 0 37.22 2.14571 39.1943 4.04C40.32 5.11714 41.48 6.23143 42.5 6.65143C43.4343 7.04 44.9829 7.06286 46.4829 7.08571C49.2714 7.12857 52.4314 7.17429 54.6286 9.37143C56.8257 11.5686 56.8714 14.7286 56.9143 17.5171C56.9371 19.0171 56.96 20.5657 57.3486 21.5C57.7686 22.52 58.8829 23.68 59.96 24.8057C61.8543 26.78 64 29.0171 64 32Z" fill="url(#paint0_linear_3082_149931)"/>
<path d="M59.5987 38.8486L59.5992 38.8481C61.5263 36.8397 63.5 34.7473 63.5 32C63.5 29.2527 61.5263 27.1603 59.5992 25.1519L59.5987 25.1514L59.5681 25.1193C59.0418 24.5694 58.4935 23.9964 58.0239 23.4335C57.5489 22.8642 57.1262 22.2726 56.8866 21.6913C56.6616 21.15 56.5542 20.4659 56.496 19.7619C56.4377 19.0564 56.4259 18.2836 56.4146 17.5432L56.4143 17.5248C56.3708 14.6911 56.305 11.755 54.275 9.72498C52.2451 7.69502 49.309 7.62921 46.4752 7.58566C46.4752 7.58566 46.4752 7.58566 46.4752 7.58566L46.4569 7.58538C45.7165 7.5741 44.9436 7.56232 44.2381 7.50402C43.5342 7.44584 42.8501 7.33838 42.3088 7.11343C42.3085 7.11332 42.3083 7.11321 42.308 7.11309L42.5 6.65143C41.4878 6.23465 40.3378 5.1342 39.2202 4.06479L59.5987 38.8486ZM59.5987 38.8486L59.5681 38.8806C59.0419 39.4306 58.4935 40.0036 58.0239 40.5665C57.5489 41.1359 57.1261 41.7275 56.8866 42.3088M59.5987 38.8486L56.8866 42.3088M7.11343 21.6912C6.8739 22.2725 6.45112 22.8641 5.97607 23.4335C5.50648 23.9964 4.95819 24.5694 4.43198 25.1193L4.40126 25.1514L4.40079 25.1519C2.47371 27.1603 0.5 29.2527 0.5 32C0.5 34.7473 2.47371 36.8397 4.40079 38.8481L4.40126 38.8486L4.43191 38.8806C4.95814 39.4306 5.50645 40.0036 5.97607 40.5665C6.45121 41.136 6.87405 41.7277 7.11356 42.3091C7.33842 42.8504 7.44585 43.5343 7.50402 44.2381C7.56232 44.9436 7.5741 45.7165 7.58538 46.4569L7.58566 46.4752C7.58566 46.4752 7.58566 46.4752 7.58566 46.4752C7.62921 49.309 7.69502 52.2451 9.72498 54.275C11.755 56.305 14.6911 56.3708 17.5248 56.4143L17.5432 56.4146C18.2836 56.4259 19.0564 56.4377 19.7619 56.496C20.4658 56.5542 21.1499 56.6616 21.6912 56.8866C22.2725 57.1261 22.8641 57.5489 23.4335 58.0239C23.9964 58.4935 24.5694 59.0418 25.1193 59.5681L25.1514 59.5987L25.1519 59.5992C27.1603 61.5263 29.2527 63.5 32 63.5C34.7473 63.5 36.8397 61.5263 38.8481 59.5992L38.8486 59.5987L38.8806 59.5681C39.4306 59.0419 40.0036 58.4935 40.5665 58.0239C41.136 57.5488 41.7277 57.1259 42.3091 56.8864C42.3093 56.8864 42.3095 56.8863 42.3096 56.8862L42.5 57.3486C43.4324 56.9608 44.9768 56.9372 46.474 56.9144L7.11343 21.6912ZM7.11343 21.6912C7.33838 21.1499 7.44584 20.4658 7.50402 19.7619C7.56232 19.0564 7.5741 18.2835 7.58538 17.5431L7.58566 17.5248C7.58566 17.5248 7.58566 17.5248 7.58566 17.5248C7.62921 14.691 7.69502 11.7549 9.72498 9.72498C11.7549 7.69502 14.691 7.62921 17.5248 7.58566C17.5248 7.58566 17.5248 7.58566 17.5248 7.58566L17.5431 7.58538C18.2835 7.5741 19.0564 7.56232 19.7619 7.50402C20.4659 7.44584 21.15 7.33836 21.6913 7.11338L7.11343 21.6912ZM56.8866 42.3088C56.8867 42.3085 56.8868 42.3083 56.8869 42.308L57.3486 42.5L56.8862 42.3096C56.8863 42.3094 56.8865 42.3091 56.8866 42.3088Z" stroke="white" stroke-opacity="0.2"/>
</g>
<g filter="url(#filter1_d_3082_149931)">
<path d="M32 19C29.4288 19 26.9154 19.7624 24.7776 21.1909C22.6398 22.6194 20.9735 24.6497 19.9896 27.0251C19.0056 29.4006 18.7482 32.0144 19.2498 34.5362C19.7514 37.0579 20.9895 39.3743 22.8076 41.1924C24.6257 43.0105 26.9421 44.2486 29.4638 44.7502C31.9856 45.2518 34.5995 44.9944 36.9749 44.0104C39.3503 43.0265 41.3807 41.3603 42.8091 39.2224C44.2376 37.0846 45 34.5712 45 32C44.9964 28.5533 43.6256 25.2488 41.1884 22.8116C38.7512 20.3744 35.4467 19.0036 32 19ZM33.5 38H33V39C33 39.2652 32.8946 39.5196 32.7071 39.7071C32.5196 39.8946 32.2652 40 32 40C31.7348 40 31.4804 39.8946 31.2929 39.7071C31.1054 39.5196 31 39.2652 31 39V38H29C28.7348 38 28.4804 37.8946 28.2929 37.7071C28.1054 37.5196 28 37.2652 28 37C28 36.7348 28.1054 36.4804 28.2929 36.2929C28.4804 36.1054 28.7348 36 29 36H33.5C33.8978 36 34.2794 35.842 34.5607 35.5607C34.842 35.2794 35 34.8978 35 34.5C35 34.1022 34.842 33.7206 34.5607 33.4393C34.2794 33.158 33.8978 33 33.5 33H30.5C29.5717 33 28.6815 32.6313 28.0251 31.9749C27.3688 31.3185 27 30.4283 27 29.5C27 28.5717 27.3688 27.6815 28.0251 27.0251C28.6815 26.3687 29.5717 26 30.5 26H31V25C31 24.7348 31.1054 24.4804 31.2929 24.2929C31.4804 24.1054 31.7348 24 32 24C32.2652 24 32.5196 24.1054 32.7071 24.2929C32.8946 24.4804 33 24.7348 33 25V26H35C35.2652 26 35.5196 26.1054 35.7071 26.2929C35.8946 26.4804 36 26.7348 36 27C36 27.2652 35.8946 27.5196 35.7071 27.7071C35.5196 27.8946 35.2652 28 35 28H30.5C30.1022 28 29.7206 28.158 29.4393 28.4393C29.158 28.7206 29 29.1022 29 29.5C29 29.8978 29.158 30.2794 29.4393 30.5607C29.7206 30.842 30.1022 31 30.5 31H33.5C34.4283 31 35.3185 31.3687 35.9749 32.0251C36.6313 32.6815 37 33.5717 37 34.5C37 35.4283 36.6313 36.3185 35.9749 36.9749C35.3185 37.6313 34.4283 38 33.5 38Z" fill="url(#paint1_linear_3082_149931)"/>
<path d="M24.8123 21.2429C26.9399 19.8213 29.4412 19.0625 32 19.0625C35.4301 19.0661 38.7187 20.4304 41.1442 22.8558C43.5697 25.2813 44.9339 28.5699 44.9375 32.0001C44.9375 34.5588 44.1787 37.0601 42.7571 39.1877C41.3356 41.3152 39.315 42.9735 36.951 43.9527C34.587 44.9319 31.9857 45.1881 29.476 44.6889C26.9664 44.1897 24.6612 42.9575 22.8518 41.1482C21.0425 39.3389 19.8103 37.0336 19.3111 34.524C18.8119 32.0144 19.0681 29.4131 20.0473 27.049C21.0265 24.685 22.6848 22.6645 24.8123 21.2429ZM33.0625 25.9375V25C33.0625 24.7182 32.9506 24.448 32.7513 24.2487C32.5521 24.0494 32.2818 23.9375 32 23.9375C31.7182 23.9375 31.448 24.0494 31.2487 24.2487C31.0494 24.448 30.9375 24.7182 30.9375 25V25.9375H30.5C29.5552 25.9375 28.649 26.3128 27.9809 26.9809C27.3128 27.649 26.9375 28.5552 26.9375 29.5C26.9375 30.4448 27.3128 31.351 27.9809 32.0191C28.649 32.6872 29.5552 33.0625 30.5 33.0625H33.5C33.8813 33.0625 34.2469 33.214 34.5165 33.4835C34.7861 33.7531 34.9375 34.1188 34.9375 34.5C34.9375 34.8812 34.7861 35.2469 34.5165 35.5165C34.2469 35.786 33.8813 35.9375 33.5 35.9375H29C28.7182 35.9375 28.448 36.0494 28.2487 36.2487C28.0494 36.448 27.9375 36.7182 27.9375 37C27.9375 37.2818 28.0494 37.552 28.2487 37.7513C28.448 37.9506 28.7182 38.0625 29 38.0625H30.9375V39C30.9375 39.2818 31.0494 39.552 31.2487 39.7513C31.448 39.9506 31.7182 40.0625 32 40.0625C32.2818 40.0625 32.552 39.9506 32.7513 39.7513C32.9506 39.552 33.0625 39.2818 33.0625 39V38.0625H33.5C34.4448 38.0625 35.351 37.6872 36.0191 37.0191C36.6872 36.351 37.0625 35.4448 37.0625 34.5C37.0625 33.5552 36.6872 32.649 36.0191 31.9809C35.351 31.3128 34.4448 30.9375 33.5 30.9375H30.5C30.1188 30.9375 29.7531 30.786 29.4835 30.5165C29.214 30.2469 29.0625 29.8812 29.0625 29.5C29.0625 29.1188 29.214 28.7531 29.4835 28.4835C29.7531 28.214 30.1188 28.0625 30.5 28.0625H35C35.2818 28.0625 35.552 27.9506 35.7513 27.7513C35.9506 27.552 36.0625 27.2818 36.0625 27C36.0625 26.7182 35.9506 26.448 35.7513 26.2487C35.552 26.0494 35.2818 25.9375 35 25.9375H33.0625Z" stroke="black" stroke-opacity="0.01" stroke-width="0.125"/>
</g>
<defs>
<filter id="filter0_b_3082_149931" x="-20" y="-20" width="104" height="104" filterUnits="userSpaceOnUse" color-interpolation-filters="sRGB">
<feFlood flood-opacity="0" result="BackgroundImageFix"/>
<feGaussianBlur in="BackgroundImageFix" stdDeviation="10"/>
<feComposite in2="SourceAlpha" operator="in" result="effect1_backgroundBlur_3082_149931"/>
<feBlend mode="normal" in="SourceGraphic" in2="effect1_backgroundBlur_3082_149931" result="shape"/>
</filter>
<filter id="filter1_d_3082_149931" x="8" y="9" width="48" height="48" filterUnits="userSpaceOnUse" color-interpolation-filters="sRGB">
<feFlood flood-opacity="0" result="BackgroundImageFix"/>
<feColorMatrix in="SourceAlpha" type="matrix" values="0 0 0 0 0 0 0 0 0 0 0 0 0 0 0 0 0 0 127 0" result="hardAlpha"/>
<feOffset dy="1"/>
<feGaussianBlur stdDeviation="4"/>
<feColorMatrix type="matrix" values="0 0 0 0 0 0 0 0 0 0 0 0 0 0 0 0 0 0 0.12 0"/>
<feBlend mode="plus-darker" in2="BackgroundImageFix" result="effect1_dropShadow_3082_149931"/>
<feBlend mode="normal" in="SourceGraphic" in2="effect1_dropShadow_3082_149931" result="shape"/>
</filter>
<linearGradient id="paint0_linear_3082_149931" x1="32" y1="0" x2="32" y2="64" gradientUnits="userSpaceOnUse">
<stop stop-color="#FFE684"/>
<stop offset="1" stop-color="#F78D11"/>
</linearGradient>
<linearGradient id="paint1_linear_3082_149931" x1="32" y1="21.8844" x2="32" y2="45" gradientUnits="userSpaceOnUse">
<stop stop-color="#812A9E"/>
<stop offset="1" stop-color="#1D0728"/>
</linearGradient>
</defs>
</svg>
