<svg width="24" height="24" viewBox="0 0 24 24" fill="none" xmlns="http://www.w3.org/2000/svg">
<path d="M11.9999 2.25C10.0715 2.25 8.18642 2.82183 6.58304 3.89317C4.97966 4.96451 3.72998 6.48726 2.99203 8.26884C2.25407 10.0504 2.06099 12.0108 2.4372 13.9021C2.8134 15.7934 3.742 17.5307 5.10556 18.8943C6.46912 20.2579 8.20641 21.1865 10.0977 21.5627C11.989 21.9389 13.9494 21.7458 15.731 21.0078C17.5126 20.2699 19.0353 19.0202 20.1067 17.4168C21.178 15.8134 21.7499 13.9284 21.7499 12C21.7469 9.41505 20.7187 6.93683 18.8909 5.109C17.063 3.28116 14.5848 2.25298 11.9999 2.25ZM20.2499 12C20.2505 12.7608 20.1454 13.5181 19.9377 14.25H16.3274C16.5574 12.7588 16.5574 11.2412 16.3274 9.75H19.9377C20.1454 10.4819 20.2505 11.2392 20.2499 12ZM9.56235 15.75H14.4374C13.9571 17.3237 13.1233 18.7667 11.9999 19.9688C10.8768 18.7664 10.0431 17.3235 9.56235 15.75ZM9.19673 14.25C8.93923 12.7611 8.93923 11.2389 9.19673 9.75H14.8105C15.068 11.2389 15.068 12.7611 14.8105 14.25H9.19673ZM3.74985 12C3.7492 11.2392 3.85427 10.4819 4.06204 9.75H7.67235C7.44235 11.2412 7.44235 12.7588 7.67235 14.25H4.06204C3.85427 13.5181 3.7492 12.7608 3.74985 12ZM14.4374 8.25H9.56235C10.0426 6.67632 10.8764 5.2333 11.9999 4.03125C13.1229 5.23361 13.9566 6.67653 14.4374 8.25ZM19.3433 8.25H16.0039C15.583 6.70585 14.8737 5.25532 13.9133 3.975C15.0736 4.25375 16.16 4.7801 17.0979 5.51799C18.0358 6.25588 18.803 7.18784 19.347 8.25H19.3433ZM10.0864 3.975C9.12604 5.25532 8.41668 6.70585 7.99579 8.25H4.65266C5.19667 7.18784 5.96392 6.25588 6.90181 5.51799C7.8397 4.7801 8.92606 4.25375 10.0864 3.975ZM4.65266 15.75H7.99579C8.41668 17.2941 9.12604 18.7447 10.0864 20.025C8.92606 19.7463 7.8397 19.2199 6.90181 18.482C5.96392 17.7441 5.19667 16.8122 4.65266 15.75ZM13.9133 20.025C14.8737 18.7447 15.583 17.2941 16.0039 15.75H19.347C18.803 16.8122 18.0358 17.7441 17.0979 18.482C16.16 19.2199 15.0736 19.7463 13.9133 20.025Z" fill="white" fill-opacity="0.5"/>
</svg>
