<svg width="24" height="24" viewBox="0 0 24 24" fill="none" xmlns="http://www.w3.org/2000/svg">
<path d="M18.9417 5.15629C18.0372 4.23285 16.957 3.49992 15.7647 3.00077C14.5723 2.50162 13.2921 2.24636 11.9995 2.25004H11.2495C11.0506 2.25004 10.8598 2.32906 10.7192 2.46971C10.5785 2.61036 10.4995 2.80113 10.4995 3.00004V5.58098L1.10671 11.3616C1.0225 11.4135 0.949387 11.4815 0.891565 11.5617C0.833743 11.6419 0.792357 11.7328 0.76979 11.8291C0.747223 11.9253 0.743919 12.0251 0.760069 12.1227C0.77622 12.2203 0.811505 12.3137 0.863895 12.3975L2.15577 14.46L2.18389 14.5004C2.51089 14.9569 2.96006 15.312 3.47979 15.5248C3.99952 15.7375 4.56873 15.7994 5.12202 15.7032C6.42796 15.4819 8.74265 15.09 10.8783 16.0116L8.38452 19.44C7.69983 19.1146 7.06527 18.6928 6.50014 18.1875C6.35096 18.0549 6.15519 17.9869 5.9559 17.9986C5.75662 18.0103 5.57014 18.1007 5.43749 18.2499C5.30484 18.3991 5.23689 18.5948 5.24858 18.7941C5.26027 18.9934 5.35065 19.1799 5.49983 19.3125C7.28916 20.8986 9.60192 21.7668 11.993 21.75H12.1964C14.1022 21.7124 15.9551 21.1169 17.526 20.0373C19.0969 18.9578 20.317 17.4414 21.0352 15.6757C21.7534 13.9101 21.9383 11.9726 21.5671 10.103C21.1959 8.23338 20.2847 6.51357 18.9464 5.15629H18.9417ZM11.6245 10.5C11.402 10.5 11.1845 10.4341 10.9995 10.3104C10.8145 10.1868 10.6703 10.0111 10.5852 9.80556C10.5 9.59999 10.4777 9.37379 10.5211 9.15556C10.5645 8.93733 10.6717 8.73688 10.829 8.57954C10.9864 8.42221 11.1868 8.31506 11.405 8.27166C11.6233 8.22825 11.8495 8.25053 12.055 8.33568C12.2606 8.42082 12.4363 8.56502 12.5599 8.75002C12.6835 8.93503 12.7495 9.15254 12.7495 9.37504C12.7495 9.67341 12.631 9.95956 12.42 10.1705C12.209 10.3815 11.9229 10.5 11.6245 10.5Z" fill="white" fill-opacity="0.5"/>
</svg>
