<svg width="11" height="10" viewBox="0 0 11 10" fill="none" xmlns="http://www.w3.org/2000/svg">
<g clip-path="url(#clip0_509_7607)">
<path d="M7.9974 3.33268H7.58073V2.49935C7.58073 1.34935 6.6474 0.416016 5.4974 0.416016C4.3474 0.416016 3.41406 1.34935 3.41406 2.49935V3.33268H2.9974C2.53906 3.33268 2.16406 3.70768 2.16406 4.16602V8.33268C2.16406 8.79102 2.53906 9.16602 2.9974 9.16602H7.9974C8.45573 9.16602 8.83073 8.79102 8.83073 8.33268V4.16602C8.83073 3.70768 8.45573 3.33268 7.9974 3.33268ZM5.4974 7.08268C5.03906 7.08268 4.66406 6.70768 4.66406 6.24935C4.66406 5.79102 5.03906 5.41602 5.4974 5.41602C5.95573 5.41602 6.33073 5.79102 6.33073 6.24935C6.33073 6.70768 5.95573 7.08268 5.4974 7.08268ZM6.78906 3.33268H4.20573V2.49935C4.20573 1.78685 4.7849 1.20768 5.4974 1.20768C6.2099 1.20768 6.78906 1.78685 6.78906 2.49935V3.33268Z" fill="white"/>
</g>
<defs>
<clipPath id="clip0_509_7607">
<rect width="10" height="10" fill="white" transform="translate(0.5)"/>
</clipPath>
</defs>
</svg>
