<svg width="24" height="24" viewBox="0 0 24 24" fill="none" xmlns="http://www.w3.org/2000/svg">
<path d="M12 2.25C10.0716 2.25 8.18657 2.82183 6.58319 3.89317C4.97982 4.96451 3.73013 6.48726 2.99218 8.26884C2.25422 10.0504 2.06114 12.0108 2.43735 13.9021C2.81355 15.7934 3.74215 17.5307 5.10571 18.8943C6.46928 20.2579 8.20656 21.1865 10.0979 21.5627C11.9892 21.9389 13.9496 21.7458 15.7312 21.0078C17.5127 20.2699 19.0355 19.0202 20.1068 17.4168C21.1782 15.8134 21.75 13.9284 21.75 12C21.7473 9.41498 20.7192 6.93661 18.8913 5.10872C17.0634 3.28084 14.585 2.25273 12 2.25ZM5.6625 6.72375L7.26282 8.32406C6.60027 9.1717 6.17917 10.1827 6.04407 11.25H3.78469C3.93543 9.58531 4.59054 8.00625 5.6625 6.72375ZM3.78469 12.75H6.04875C6.18385 13.8173 6.60496 14.8283 7.2675 15.6759L5.6625 17.2762C4.59054 15.9938 3.93543 14.4147 3.78469 12.75ZM11.25 20.2153C9.58563 20.0654 8.0066 19.4113 6.72375 18.3403L8.32407 16.74C9.17251 17.3999 10.1834 17.8183 11.25 17.9513V20.2153ZM11.25 6.04875C10.1827 6.18385 9.1717 6.60495 8.32407 7.2675L6.72375 5.6625C8.0066 4.59155 9.58563 3.93743 11.25 3.7875V6.04875ZM20.2153 11.25H17.9513C17.8175 10.1831 17.3981 9.17221 16.7372 8.32406L18.3375 6.72375C19.4095 8.00625 20.0646 9.58531 20.2153 11.25ZM12.75 3.78469C14.4144 3.93462 15.9934 4.58873 17.2763 5.65969L15.6759 7.26281C14.8283 6.60026 13.8173 6.17916 12.75 6.04406V3.78469ZM12.75 20.2153V17.9513C13.8169 17.8175 14.8278 17.3981 15.6759 16.7372L17.2763 18.3375C15.9938 19.4095 14.4147 20.0646 12.75 20.2153ZM18.3375 17.2762L16.7372 15.6759C17.3981 14.8278 17.8175 13.8169 17.9513 12.75H20.2153C20.0646 14.4147 19.4095 15.9938 18.3375 17.2762Z" fill="white" fill-opacity="0.5"/>
</svg>
