<svg width="24" height="24" viewBox="0 0 24 24" fill="none" xmlns="http://www.w3.org/2000/svg">
<path fill-rule="evenodd" clip-rule="evenodd" d="M14.1213 7.75731C13.7938 8.0848 13.4095 8.32075 13 8.46515V11H15.5348C15.6792 10.5906 15.9151 10.2062 16.2426 9.87868C17.4142 8.70711 19.3137 8.70711 20.4853 9.87868C21.6569 11.0503 21.6569 12.9497 20.4853 14.1213C19.3137 15.2929 17.4142 15.2929 16.2426 14.1213C15.9152 13.7938 15.6792 13.4095 15.5348 13H13V15.5348C13.4095 15.6793 13.7938 15.9152 14.1213 16.2427C15.2929 17.4143 15.2929 19.3138 14.1213 20.4853C12.9498 21.6569 11.0503 21.6569 9.87869 20.4853C8.70711 19.3138 8.70711 17.4143 9.87869 16.2427C10.2062 15.9152 10.5906 15.6793 11 15.5348V13H8.4652C8.3208 13.4095 8.08485 13.7938 7.75737 14.1213C6.58579 15.2929 4.6863 15.2929 3.51473 14.1213C2.34315 12.9497 2.34315 11.0503 3.51473 9.87868C4.6863 8.70711 6.58579 8.70711 7.75737 9.87868C8.08487 10.2062 8.32082 10.5906 8.46523 11H11V8.46515C10.5906 8.32075 10.2062 8.0848 9.87869 7.75731C8.70711 6.58573 8.70711 4.68624 9.87869 3.51467C11.0503 2.34309 12.9498 2.34309 14.1213 3.51467C15.2929 4.68624 15.2929 6.58573 14.1213 7.75731Z" fill="white" fill-opacity="0.5"/>
</svg>
