<svg width="24" height="24" viewBox="0 0 24 24" fill="none" xmlns="http://www.w3.org/2000/svg">
<path d="M21.75 12.75C21.7497 13.6659 21.5098 14.5658 21.054 15.3604C20.5983 16.1549 19.9427 16.8163 19.1522 17.279C18.3618 17.7418 17.464 17.9896 16.5481 17.998C15.6322 18.0064 14.7301 17.775 13.9313 17.3269L14.9681 20.7844C15.0017 20.8963 15.0087 21.0146 14.9885 21.1298C14.9682 21.2449 14.9214 21.3538 14.8516 21.4476C14.7818 21.5414 14.6911 21.6176 14.5867 21.6701C14.4822 21.7226 14.3669 21.75 14.25 21.75H9.75C9.63309 21.75 9.5178 21.7226 9.41335 21.6701C9.30889 21.6176 9.21816 21.5414 9.14839 21.4476C9.07863 21.3538 9.03176 21.2449 9.01153 21.1298C8.99129 21.0146 8.99826 20.8963 9.03187 20.7844L10.0688 17.3269C9.26995 17.775 8.36779 18.0064 7.4519 17.998C6.53601 17.9896 5.63825 17.7418 4.84779 17.279C4.05733 16.8163 3.40168 16.1549 2.94596 15.3604C2.49024 14.5658 2.25031 13.6659 2.25 12.75C2.25 9.75 3.90469 6.85875 7.03125 4.38093C8.46668 3.2489 10.0379 2.30062 11.7084 1.55812C11.7998 1.5196 11.898 1.49976 11.9972 1.49976C12.0964 1.49976 12.1945 1.5196 12.2859 1.55812C13.9584 2.30021 15.5316 3.2485 16.9688 4.38093C20.0953 6.85875 21.75 9.75 21.75 12.75Z" fill="white" fill-opacity="0.5"/>
</svg>
