<svg width="64" height="64" viewBox="0 0 64 64" fill="none" xmlns="http://www.w3.org/2000/svg">
<g filter="url(#filter0_b_3082_148796)">
<path d="M64 32C64 34.9829 61.8543 37.22 59.96 39.1943C58.8829 40.32 57.7686 41.48 57.3486 42.5C56.96 43.4343 56.9371 44.9829 56.9143 46.4829C56.8714 49.2714 56.8257 52.4314 54.6286 54.6286C52.4314 56.8257 49.2714 56.8714 46.4829 56.9143C44.9829 56.9371 43.4343 56.96 42.5 57.3486C41.48 57.7686 40.32 58.8829 39.1943 59.96C37.22 61.8543 34.9829 64 32 64C29.0171 64 26.78 61.8543 24.8057 59.96C23.68 58.8829 22.52 57.7686 21.5 57.3486C20.5657 56.96 19.0171 56.9371 17.5171 56.9143C14.7286 56.8714 11.5686 56.8257 9.37143 54.6286C7.17429 52.4314 7.12857 49.2714 7.08571 46.4829C7.06286 44.9829 7.04 43.4343 6.65143 42.5C6.23143 41.48 5.11714 40.32 4.04 39.1943C2.14571 37.22 0 34.9829 0 32C0 29.0171 2.14571 26.78 4.04 24.8057C5.11714 23.68 6.23143 22.52 6.65143 21.5C7.04 20.5657 7.06286 19.0171 7.08571 17.5171C7.12857 14.7286 7.17429 11.5686 9.37143 9.37143C11.5686 7.17429 14.7286 7.12857 17.5171 7.08571C19.0171 7.06286 20.5657 7.04 21.5 6.65143C22.52 6.23143 23.68 5.11714 24.8057 4.04C26.78 2.14571 29.0171 0 32 0C34.9829 0 37.22 2.14571 39.1943 4.04C40.32 5.11714 41.48 6.23143 42.5 6.65143C43.4343 7.04 44.9829 7.06286 46.4829 7.08571C49.2714 7.12857 52.4314 7.17429 54.6286 9.37143C56.8257 11.5686 56.8714 14.7286 56.9143 17.5171C56.9371 19.0171 56.96 20.5657 57.3486 21.5C57.7686 22.52 58.8829 23.68 59.96 24.8057C61.8543 26.78 64 29.0171 64 32Z" fill="url(#paint0_linear_3082_148796)"/>
<path d="M59.5987 38.8486L59.5992 38.8481C61.5263 36.8397 63.5 34.7473 63.5 32C63.5 29.2527 61.5263 27.1603 59.5992 25.1519L59.5987 25.1514L59.5681 25.1193C59.0418 24.5694 58.4935 23.9964 58.0239 23.4335C57.5489 22.8642 57.1262 22.2726 56.8866 21.6913C56.6616 21.15 56.5542 20.4659 56.496 19.7619C56.4377 19.0564 56.4259 18.2836 56.4146 17.5432L56.4143 17.5248C56.3708 14.6911 56.305 11.755 54.275 9.72498C52.2451 7.69502 49.309 7.62921 46.4752 7.58566C46.4752 7.58566 46.4752 7.58566 46.4752 7.58566L46.4569 7.58538C45.7165 7.5741 44.9436 7.56232 44.2381 7.50402C43.5342 7.44584 42.8501 7.33838 42.3088 7.11343C42.3085 7.11332 42.3083 7.11321 42.308 7.11309L42.5 6.65143C41.4878 6.23465 40.3378 5.1342 39.2202 4.06479L59.5987 38.8486ZM59.5987 38.8486L59.5681 38.8806C59.0419 39.4306 58.4935 40.0036 58.0239 40.5665C57.5489 41.1359 57.1261 41.7275 56.8866 42.3088M59.5987 38.8486L56.8866 42.3088M7.11343 21.6912C6.8739 22.2725 6.45112 22.8641 5.97607 23.4335C5.50648 23.9964 4.95819 24.5694 4.43198 25.1193L4.40126 25.1514L4.40079 25.1519C2.47371 27.1603 0.5 29.2527 0.5 32C0.5 34.7473 2.47371 36.8397 4.40079 38.8481L4.40126 38.8486L4.43191 38.8806C4.95814 39.4306 5.50645 40.0036 5.97607 40.5665C6.45121 41.136 6.87405 41.7277 7.11356 42.3091C7.33842 42.8504 7.44585 43.5343 7.50402 44.2381C7.56232 44.9436 7.5741 45.7165 7.58538 46.4569L7.58566 46.4752C7.58566 46.4752 7.58566 46.4752 7.58566 46.4752C7.62921 49.309 7.69502 52.2451 9.72498 54.275C11.755 56.305 14.6911 56.3708 17.5248 56.4143L17.5432 56.4146C18.2836 56.4259 19.0564 56.4377 19.7619 56.496C20.4658 56.5542 21.1499 56.6616 21.6912 56.8866C22.2725 57.1261 22.8641 57.5489 23.4335 58.0239C23.9964 58.4935 24.5694 59.0418 25.1193 59.5681L25.1514 59.5987L25.1519 59.5992C27.1603 61.5263 29.2527 63.5 32 63.5C34.7473 63.5 36.8397 61.5263 38.8481 59.5992L38.8486 59.5987L38.8806 59.5681C39.4306 59.0419 40.0036 58.4935 40.5665 58.0239C41.136 57.5488 41.7277 57.1259 42.3091 56.8864C42.3093 56.8864 42.3095 56.8863 42.3096 56.8862L42.5 57.3486C43.4324 56.9608 44.9768 56.9372 46.474 56.9144L7.11343 21.6912ZM7.11343 21.6912C7.33838 21.1499 7.44584 20.4658 7.50402 19.7619C7.56232 19.0564 7.5741 18.2835 7.58538 17.5431L7.58566 17.5248C7.58566 17.5248 7.58566 17.5248 7.58566 17.5248C7.62921 14.691 7.69502 11.7549 9.72498 9.72498C11.7549 7.69502 14.691 7.62921 17.5248 7.58566C17.5248 7.58566 17.5248 7.58566 17.5248 7.58566L17.5431 7.58538C18.2835 7.5741 19.0564 7.56232 19.7619 7.50402C20.4659 7.44584 21.15 7.33836 21.6913 7.11338L7.11343 21.6912ZM56.8866 42.3088C56.8867 42.3085 56.8868 42.3083 56.8869 42.308L57.3486 42.5L56.8862 42.3096C56.8863 42.3094 56.8865 42.3091 56.8866 42.3088Z" stroke="white" stroke-opacity="0.2"/>
</g>
<g filter="url(#filter1_d_3082_148796)">
<path d="M44.6322 22.7364C44.4894 21.8948 44.0884 21.1185 43.4849 20.5149C42.8813 19.9113 42.105 19.5104 41.2634 19.3676C37.2159 18.6814 29.5897 18.3676 23.9797 23.9801C18.3697 29.5926 18.6809 37.2176 19.3672 41.2639C19.5103 42.1063 19.9122 42.8833 20.517 43.4869C21.1217 44.0906 21.8995 44.491 22.7422 44.6326C24.1598 44.8744 25.5953 44.9973 27.0334 45.0001C31.0447 45.0001 36.0397 44.0001 40.0197 40.0201C45.6309 34.4101 45.3184 26.7826 44.6322 22.7364ZM23.0697 42.6626C22.6369 42.589 22.2378 42.3828 21.9274 42.0724C21.617 41.762 21.4108 41.3628 21.3372 40.9301C20.9941 38.9958 20.9054 37.0249 21.0734 35.0676L28.9322 42.9264C26.9749 43.0944 25.004 43.0057 23.0697 42.6626ZM36.7047 28.7089L34.9122 30.5001L35.7047 31.2926C35.8035 31.384 35.8828 31.4945 35.9379 31.6173C35.993 31.7401 36.0227 31.8728 36.0253 32.0074C36.0279 32.142 36.0033 32.2758 35.9529 32.4006C35.9026 32.5255 35.8275 32.6389 35.7323 32.734C35.6371 32.8292 35.5236 32.9041 35.3987 32.9544C35.2738 33.0046 35.14 33.0291 35.0055 33.0264C34.8709 33.0237 34.7382 32.9939 34.6154 32.9386C34.4926 32.8834 34.3823 32.804 34.2909 32.7051L33.4997 31.9139L31.9134 33.5001L32.7059 34.2926C32.8048 34.384 32.8842 34.4943 32.9394 34.6171C32.9947 34.7399 33.0245 34.8726 33.0272 35.0072C33.0299 35.1417 33.0054 35.2755 32.9552 35.4004C32.9049 35.5253 32.83 35.6388 32.7348 35.734C32.6397 35.8292 32.5263 35.9043 32.4014 35.9546C32.2766 36.005 32.1428 36.0296 32.0082 36.027C31.8736 36.0244 31.7409 35.9947 31.6181 35.9396C31.4953 35.8845 31.3848 35.8052 31.2934 35.7064L30.4997 34.9126L28.7072 36.7051C28.6152 36.8019 28.5048 36.8793 28.3825 36.9327C28.2602 36.9861 28.1285 37.0145 27.995 37.0163C27.8615 37.018 27.7291 36.9929 27.6054 36.9426C27.4818 36.8924 27.3695 36.8178 27.2751 36.7234C27.1807 36.6291 27.1062 36.5167 27.0559 36.3931C27.0056 36.2695 26.9806 36.137 26.9823 36.0035C26.984 35.8701 27.0124 35.7383 27.0658 35.616C27.1193 35.4937 27.1966 35.3833 27.2934 35.2914L29.0872 33.5001L28.2947 32.7076C28.1193 32.5178 28.0243 32.2674 28.0295 32.0091C28.0346 31.7507 28.1397 31.5043 28.3225 31.3217C28.5053 31.139 28.7517 31.0342 29.0101 31.0293C29.2685 31.0243 29.5187 31.1196 29.7084 31.2951L30.5009 32.0876L32.0859 30.5001L31.2934 29.7076C31.1179 29.5179 31.0226 29.2677 31.0276 29.0093C31.0325 28.7509 31.1373 28.5045 31.32 28.3217C31.5026 28.1389 31.749 28.0338 32.0074 28.0287C32.2657 28.0235 32.5161 28.1185 32.7059 28.2939L33.4997 29.0876L35.2922 27.2951C35.3841 27.1983 35.4945 27.121 35.6168 27.0675C35.7391 27.0141 35.8709 26.9857 36.0043 26.984C36.1378 26.9823 36.2703 27.0073 36.3939 27.0576C36.5175 27.1079 36.6299 27.1824 36.7242 27.2768C36.8186 27.3712 36.8932 27.4835 36.9434 27.6071C36.9937 27.7308 37.0188 27.8632 37.0171 27.9967C37.0153 28.1301 36.9869 28.2619 36.9335 28.3842C36.8801 28.5065 36.8014 28.6169 36.7047 28.7089ZM42.9259 28.9326L35.0672 21.0739C35.6622 21.0189 36.2822 20.9876 36.9309 20.9876C38.2717 20.9923 39.6097 21.1094 40.9309 21.3376C41.3634 21.4114 41.7623 21.6178 42.0724 21.9282C42.3826 22.2385 42.5886 22.6376 42.6622 23.0701C43.0053 25.0044 43.0939 26.9753 42.9259 28.9326Z" fill="url(#paint1_linear_3082_148796)"/>
<path d="M22.825 44.1395L22.8262 44.1397C24.2165 44.3768 25.6241 44.4974 27.0344 44.5001C30.969 44.5 35.8136 43.5191 39.6661 39.6666L39.6661 39.6665C45.0997 34.2342 44.8179 26.8217 44.1392 22.82C44.0138 22.0807 43.6616 21.3987 43.1313 20.8684C42.6011 20.3382 41.9191 19.986 41.1798 19.8606C37.1767 19.1818 29.7655 18.8989 24.3333 24.3336C18.9009 29.7684 19.1814 37.1785 19.8601 41.1801L22.825 44.1395ZM22.825 44.1395C22.0847 44.0151 21.4015 43.6634 20.8702 43.1331C20.3389 42.6028 19.9859 41.9203 19.8601 41.1803L22.825 44.1395ZM21.5738 42.4259C21.9571 42.8092 22.4498 43.064 22.984 43.1552C24.9607 43.5057 26.9747 43.5962 28.9749 43.4245L30.0455 43.3326L29.2857 42.5728L21.427 34.7141L20.6671 33.9542L20.5752 35.0248C20.4036 37.025 20.4941 39.039 20.8445 41.0157C20.9358 41.5499 21.1906 42.0427 21.5738 42.4259ZM27.9274 33.0469L27.9341 33.0541L27.9411 33.0612L28.3798 33.4999L26.9441 34.9336C26.8012 35.0706 26.6869 35.2344 26.6076 35.4158C26.5275 35.5993 26.4849 35.7969 26.4823 35.9971C26.4797 36.1973 26.5173 36.396 26.5927 36.5815C26.6681 36.7669 26.7799 36.9354 26.9215 37.077C27.0631 37.2186 27.2316 37.3304 27.417 37.4058C27.6025 37.4812 27.8012 37.5188 28.0014 37.5162C28.2016 37.5137 28.3992 37.471 28.5827 37.3909C28.764 37.3117 28.9279 37.1974 29.0648 37.0546L30.4997 35.6197L30.9337 36.0537C31.0694 36.1983 31.2325 36.3146 31.4135 36.3958C31.5977 36.4785 31.7967 36.5231 31.9987 36.5269C32.2005 36.5308 32.4011 36.4939 32.5884 36.4183C32.7757 36.3428 32.9458 36.2303 33.0885 36.0874C33.2313 35.9445 33.3437 35.7743 33.419 35.587C33.4944 35.3996 33.5312 35.199 33.5271 34.9971L33.0272 35.0072L33.5271 34.9971C33.5231 34.7952 33.4783 34.5962 33.3955 34.4121C33.3141 34.2312 33.1978 34.0683 33.0532 33.9328L32.6205 33.5001L33.4997 32.621L33.9311 33.0524C34.0666 33.197 34.2295 33.3133 34.4104 33.3947C34.5945 33.4775 34.7935 33.5223 34.9954 33.5263L35.0055 33.0264L34.9954 33.5263C35.1973 33.5304 35.398 33.4936 35.5853 33.4182C35.7726 33.3429 35.9428 33.2305 36.0857 33.0877C36.2286 32.945 36.3411 32.7749 36.4166 32.5876C36.4922 32.4003 36.5291 32.1997 36.5252 31.9979C36.5214 31.796 36.4768 31.5969 36.3941 31.4127C36.3129 31.2317 36.1966 31.0686 36.052 30.9329L35.6194 30.5002L37.054 29.0666C37.195 28.9314 37.3114 28.7681 37.3917 28.5844C37.4718 28.4009 37.5145 28.2033 37.517 28.0031C37.5196 27.8029 37.482 27.6042 37.4066 27.4187C37.3312 27.2333 37.2194 27.0648 37.0778 26.9232C36.9362 26.7816 36.7677 26.6698 36.5823 26.5944C36.3968 26.519 36.1981 26.4814 35.9979 26.484C35.7977 26.4866 35.6001 26.5292 35.4166 26.6093C35.2353 26.6886 35.0715 26.8028 34.9346 26.9456L33.4997 28.3805L33.0595 27.9403L33.0524 27.9333L33.0452 27.9266C32.7604 27.6635 32.3849 27.521 31.9973 27.5288L32.0074 28.0287L31.9973 27.5288C31.6098 27.5365 31.2403 27.694 30.9663 27.9683C30.6923 28.2425 30.5351 28.6121 30.5277 28.9997C30.5203 29.3873 30.6631 29.7627 30.9264 30.0472L30.933 30.0543L30.9399 30.0612L31.3791 30.5004L30.5006 31.3802L30.062 30.9416L30.0551 30.9347L30.048 30.9281C29.7635 30.6648 29.3881 30.522 29.0005 30.5294C28.6129 30.5368 28.2433 30.694 27.9691 30.968C27.6948 31.242 27.5373 31.6115 27.5296 31.999L28.0295 32.0091L27.5296 31.999C27.5218 32.3866 27.6643 32.7621 27.9274 33.0469ZM42.5724 29.2862L43.3322 30.046L42.6622 23.0701L43.1551 22.9863C43.155 22.9857 43.1549 22.9851 43.1548 22.9846C43.0637 22.4505 42.8091 21.958 42.4261 21.5747C42.043 21.1913 41.5503 20.9363 41.016 20.8449C39.6673 20.612 38.3014 20.4924 36.9327 20.4876H36.9309C36.266 20.4876 35.6306 20.5196 35.0211 20.576L33.9602 20.674L34.7136 21.4274L42.5724 29.2862Z" stroke="black" stroke-opacity="0.01"/>
</g>
<defs>
<filter id="filter0_b_3082_148796" x="-20" y="-20" width="104" height="104" filterUnits="userSpaceOnUse" color-interpolation-filters="sRGB">
<feFlood flood-opacity="0" result="BackgroundImageFix"/>
<feGaussianBlur in="BackgroundImageFix" stdDeviation="10"/>
<feComposite in2="SourceAlpha" operator="in" result="effect1_backgroundBlur_3082_148796"/>
<feBlend mode="normal" in="SourceGraphic" in2="effect1_backgroundBlur_3082_148796" result="shape"/>
</filter>
<filter id="filter1_d_3082_148796" x="8" y="9" width="48" height="48" filterUnits="userSpaceOnUse" color-interpolation-filters="sRGB">
<feFlood flood-opacity="0" result="BackgroundImageFix"/>
<feColorMatrix in="SourceAlpha" type="matrix" values="0 0 0 0 0 0 0 0 0 0 0 0 0 0 0 0 0 0 127 0" result="hardAlpha"/>
<feOffset dy="1"/>
<feGaussianBlur stdDeviation="4"/>
<feColorMatrix type="matrix" values="0 0 0 0 0 0 0 0 0 0 0 0 0 0 0 0 0 0 0.12 0"/>
<feBlend mode="plus-darker" in2="BackgroundImageFix" result="effect1_dropShadow_3082_148796"/>
<feBlend mode="normal" in="SourceGraphic" in2="effect1_dropShadow_3082_148796" result="shape"/>
</filter>
<linearGradient id="paint0_linear_3082_148796" x1="32" y1="0" x2="32" y2="64" gradientUnits="userSpaceOnUse">
<stop stop-color="#FFE684"/>
<stop offset="1" stop-color="#F78D11"/>
</linearGradient>
<linearGradient id="paint1_linear_3082_148796" x1="31.9998" y1="21.8844" x2="31.9998" y2="45.0001" gradientUnits="userSpaceOnUse">
<stop stop-color="#812A9E"/>
<stop offset="1" stop-color="#1D0728"/>
</linearGradient>
</defs>
</svg>
